<svg xmlns="http://www.w3.org/2000/svg" viewBox="0 0 64 64" fill="none"><defs><linearGradient id="g" x1="0%" y1="0%" x2="100%" y2="100%"><stop offset="0%" stop-color="#2DE2C4"/><stop offset="100%" stop-color="#1BA38B"/></linearGradient></defs><rect width="64" height="64" rx="16" fill="#0B1622"/><rect x="2" y="2" width="60" height="60" rx="14" stroke="url(#g)" stroke-width="2" stroke-opacity="0.6"/><path d="M15 22C15 20.8954 15.8954 20 17 20H47C48.1046 20 49 20.8954 49 22V42C49 43.1046 48.1046 44 47 44H17C15.8954 44 15 43.1046 15 42V22Z" stroke="url(#g)" stroke-width="2.5" fill="#0d2435"/><path d="M15 22L32 34L49 22" stroke="url(#g)" stroke-width="2.5" stroke-linecap="round" stroke-linejoin="round"/><polygon points="35 24 28 34 33 34 29 42 39 32 34 32" fill="#2de2c4"/></svg>